<svg width="414" height="896" viewBox="0 0 414 896" fill="none" xmlns="http://www.w3.org/2000/svg">
<g clip-path="url(#clip0_1_4)">
<rect width="414" height="896" fill="white"/>
<path d="M133.427 77.7642C188.33 54.4248 157.721 22.8938 209.873 -5.32697L-12.6237 -6.52004L-13.6853 191.477C19.446 182.655 5.97261 162.082 19.7598 124.123C40.0555 68.2457 64.7972 106.938 133.427 77.7642Z" fill="#FBBEBE"/>
<path d="M200.122 661.589C192.595 640.295 151.664 619.702 125.128 624.779C94.7454 636.203 46.2104 660.827 76.6697 723.785C94.3607 743.248 141.973 777.604 172.432 749.172C210.506 713.631 208.199 684.437 200.122 661.589Z" fill="#EDF0FF"/>
<path d="M202.738 641.689C199.247 631.668 180.265 621.977 167.958 624.367C153.867 629.743 131.358 641.331 145.485 670.958C153.689 680.117 175.77 696.284 189.896 682.904C207.554 666.179 206.483 652.441 202.738 641.689Z" stroke="#FF9898"/>
<path d="M345.967 856C333.167 772.4 385.967 729.167 413.967 718V895.5C367.167 899.5 349.134 870.833 345.967 856Z" fill="#FBBEBE"/>
</g>
<defs>
<clipPath id="clip0_1_4">
<rect width="414" height="896" fill="white"/>
</clipPath>
</defs>
</svg>
