<svg width="414" height="896" viewBox="0 0 414 896" fill="none" xmlns="http://www.w3.org/2000/svg">
<g clip-path="url(#clip0_1_25)">
<rect width="414" height="896" fill="white"/>
<circle cx="305.5" cy="61.5" r="33.5" fill="#EDF0FF"/>
<path d="M343 85C343 96.6198 333.8 106 322.5 106C311.2 106 302 96.6198 302 85C302 73.3802 311.2 64 322.5 64C333.8 64 343 73.3802 343 85Z" stroke="#FFB4B4" stroke-width="2"/>
<path d="M94.5611 774.794C90.7976 764.147 70.3322 753.851 57.0639 756.39C41.8727 762.102 17.6052 774.414 32.8349 805.893C41.6804 815.624 65.4863 832.802 80.7159 818.586C99.753 800.816 98.5993 786.218 94.5611 774.794Z" fill="#EDF0FF"/>
<path d="M432.806 584.798C436.258 578.764 432.811 565.025 426.276 559.809C417.485 554.961 401.953 548.494 393.401 568.26C392.426 576.314 394.007 594.38 406.784 595.839C422.754 597.662 429.102 591.272 432.806 584.798Z" fill="#FFE4E4" fill-opacity="0.58"/>
<path d="M-7 79.0321V-2H172.099C175.881 12.6267 167.064 19.0222 158.587 19.0222C143.762 19.0222 129.764 23.1708 129.764 41.1963C129.764 57.0349 119.309 71.7395 101.507 83.2407C63.4724 107.814 11.6392 91.5136 -7 79.0321Z" fill="#FFCEC8"/>
<path d="M285.981 846.98C237.829 867.731 239.5 890 251.5 897.5L414.736 897.5L414.736 746.385C385.651 754.281 397.605 772.311 385.68 805.742C368.127 854.955 346.171 821.041 285.981 846.98Z" fill="#FBBEBE"/>
<path d="M17.0269 95C16.3603 76.1667 27.8269 36.4 79.0269 28C143.027 17.5 184.527 41 207.527 10" stroke="white"/>
</g>
<defs>
<clipPath id="clip0_1_25">
<rect width="414" height="896" fill="white"/>
</clipPath>
</defs>
</svg>
